<svg width="57" height="60" viewBox="0 0 57 60" fill="none" xmlns="http://www.w3.org/2000/svg">
<path d="M33.82 0.542515C33.4809 0.547814 33.1578 0.687411 32.9216 0.930667C32.6854 1.17392 32.5553 1.50096 32.5599 1.84001V3.12001H27.4399C27.1005 3.12005 26.7749 3.25492 26.5349 3.49496C26.2948 3.73499 26.16 4.06055 26.1599 4.40001V31.28C26.16 31.6195 26.2948 31.945 26.5349 32.1851C26.7749 32.4251 27.1005 32.56 27.4399 32.56H55.5999C55.9394 32.56 56.265 32.4251 56.505 32.1851C56.745 31.945 56.8799 31.6195 56.88 31.28V4.40001C56.8799 4.06055 56.745 3.73499 56.505 3.49496C56.265 3.25492 55.9394 3.12005 55.5999 3.12001H51.7599V5.68001H54.32V9.52001H28.7199V5.68001H32.5599V6.96001C32.5576 7.12963 32.5889 7.29803 32.6521 7.45543C32.7154 7.61283 32.8093 7.75609 32.9284 7.87688C33.0475 7.99767 33.1894 8.09359 33.3459 8.15906C33.5024 8.22453 33.6703 8.25824 33.8399 8.25824C34.0096 8.25824 34.1775 8.22453 34.334 8.15906C34.4905 8.09359 34.6324 7.99767 34.7515 7.87688C34.8706 7.75609 34.9645 7.61283 35.0278 7.45543C35.091 7.29803 35.1223 7.12963 35.1199 6.96001V1.84001C35.1223 1.66876 35.0903 1.49878 35.0257 1.34014C34.9612 1.1815 34.8655 1.03742 34.7443 0.916428C34.623 0.795441 34.4788 0.700009 34.32 0.635782C34.1612 0.571555 33.9912 0.53984 33.82 0.542515ZM49.18 0.542515C48.8409 0.547814 48.5178 0.687411 48.2816 0.930667C48.0454 1.17392 47.9153 1.50096 47.9199 1.84001V3.12001H36.3999V5.68001H47.9199V6.96001C47.9175 7.12963 47.9489 7.29803 48.0121 7.45543C48.0754 7.61283 48.1693 7.75609 48.2884 7.87688C48.4075 7.99767 48.5494 8.09359 48.7059 8.15906C48.8624 8.22453 49.0303 8.25824 49.2 8.25824C49.3696 8.25824 49.5375 8.22453 49.694 8.15906C49.8505 8.09359 49.9924 7.99767 50.1115 7.87688C50.2306 7.75609 50.3245 7.61283 50.3878 7.45543C50.451 7.29803 50.4823 7.12963 50.4799 6.96001V1.84001C50.4823 1.66876 50.4503 1.49878 50.3857 1.34014C50.3212 1.1815 50.2255 1.03742 50.1043 0.916428C49.983 0.795441 49.8388 0.700009 49.68 0.635782C49.5212 0.571555 49.3512 0.53984 49.18 0.542515ZM22.2724 3.75001C22.2001 3.75309 22.1282 3.76229 22.0574 3.77751C16.4659 4.94498 12.62 7.73628 10.1649 11.3875C7.77071 14.9483 6.69036 19.2649 6.18245 23.7025L1.00245 32.625C0.998219 32.6316 0.994052 32.6383 0.989947 32.645C0.10722 34.2335 0.672115 36.3046 2.27245 37.195C2.28893 37.2037 2.3056 37.212 2.32245 37.22L6.21745 39.1675L7.46995 47.83C7.47074 47.8359 7.47157 47.8417 7.47245 47.8475C7.74777 49.5684 8.64139 51.1623 9.89495 52.3625C11.1485 53.5627 12.8135 54.3934 14.6424 54.32H18.4799V56.88V58.16V59.44H19.5449C19.6832 59.4629 19.8242 59.4629 19.9624 59.44H21.0399V58.16V56.88V53.04C21.0399 52.7005 20.905 52.375 20.665 52.135C20.425 51.8949 20.0994 51.76 19.7599 51.76H14.5924C14.5749 51.7597 14.5574 51.7597 14.5399 51.76C13.5605 51.7993 12.5244 51.3378 11.6649 50.515C10.8055 49.6922 10.1739 48.5324 9.99995 47.445L8.65495 38.14C8.62544 37.9354 8.5468 37.7409 8.42577 37.5733C8.30474 37.4057 8.14491 37.2699 7.95995 37.1775L3.51745 34.9575C3.09794 34.7241 2.98883 34.3239 3.22995 33.89L8.49745 24.8125C8.58716 24.6576 8.64337 24.4855 8.66245 24.3075C9.12729 19.985 10.1764 15.9608 12.2899 12.8175C14.4035 9.67419 17.5436 7.33707 22.5824 6.28501C22.9004 6.22313 23.183 6.04304 23.3734 5.78103C23.5638 5.51902 23.6478 5.19458 23.6085 4.87308C23.5692 4.55159 23.4095 4.25695 23.1616 4.04855C22.9136 3.84014 22.5959 3.73347 22.2724 3.75001ZM28.7199 12.08H54.32V30H28.7199V12.08ZM42.7999 19.76V27.44H50.4799V19.76H42.7999ZM47.7975 36.385C47.568 36.3968 47.346 36.4701 47.1547 36.5972C46.9633 36.7243 46.8097 36.9006 46.7099 37.1075C46.3524 37.8214 45.9798 38.4788 45.5799 39.035C45.5766 39.04 45.5732 39.045 45.57 39.05C43.0851 42.6 41.52 46.784 41.52 51.24V56.88V58.16V59.44H42.5849C42.7232 59.4629 42.8642 59.4629 43.0024 59.44H44.0799V58.16V56.88V51.24C44.0799 47.3886 45.4318 43.7177 47.66 40.53L47.6674 40.5175C48.1803 39.8022 48.6096 39.0319 49 38.2525C49.1037 38.0524 49.1527 37.8285 49.1421 37.6034C49.1315 37.3782 49.0617 37.1599 48.9397 36.9704C48.8177 36.7809 48.6478 36.627 48.4473 36.5242C48.2467 36.4214 48.0225 36.3734 47.7975 36.385Z" fill="white"/>
</svg>
